<svg height="512pt" viewBox="-48 0 512 512.00031" width="512pt" xmlns="http://www.w3.org/2000/svg"><path fill="#ffaf00" d="m411.34375 352.816406c-.707031-1.300781-1.507812-2.53125-2.375-3.707031.011719-.101563.039062-.203125.042969-.3125l1.386719-43.492187c.289062-9.089844.621093-19.394532-3.40625-28.738282-3.453126-8-10.117188-15.09375-19.277344-20.515625-7.6875-4.554687-14.222656-6.792969-22.390625-9.542969-.246094-2.429687-.5-4.859374-.769531-7.289062-2.039063-18.273438-5.117188-39.539062-11.230469-61.03125 3.082031-11.960938 6.679687-24.996094 10.15625-37.601562 3.503906-12.691407 7.125-25.8125 10.230469-37.871094 1.632812-6.34375 3.484374-13.535156 2.351562-20.847656-2.140625-13.824219-13.582031-23.085938-25.113281-31.390626-7.40625-5.328124-16.097657-10.832031-25.546875-8.675781-8.269532 1.890625-13.539063 8.851563-18.230469 15.824219l-17.292969 25.691406c-2.847656-1.902344-5.753906-3.675781-8.710937-5.3125.007812-.019531.015625-.03125.023437-.050781 3.460938-12.371094 6.578125-26.523437-.308594-37.902344-4.027343-6.648437-10.5625-10.800781-16.332031-14.464843l-19.738281-12.535157c-8.339844-5.292969-17.792969-11.296875-28.714844-12.71875-15.464844-2.011719-30.054687 5.542969-41.773437 11.613281-11.953125 6.1875-23.988281 13.277344-28.355469 25.753907-2.789062 7.96875-1.703125 16.183593-.65625 24.128906.90625 6.898437 1.765625 13.414063.164062 19.480469-.148437.566406-.136718 1.132812-.015624 1.667968-2.699219 1.695313-5.34375 3.480469-7.917969 5.363282-1.089844.800781-2.171875 1.625-3.246094 2.460937-2.136719-8.289062-4.730469-17.324219-9.679687-25.089843-6.394532-10.023438-16.089844-16.28125-25.941407-16.742188-6.289062-.304688-12.222656 1.734375-16.683593 3.535156-15.886719 6.410156-26.121094 16.957032-28.074219 28.925782-1.28125 7.863281.976562 15.507812 2.96875 22.25l19.515625 66.066406c.21875.738281.660156 1.351562 1.230468 1.789062-.25.664063-.503906 1.328125-.75 2-10.175781 27.773438-15.050781 57.097656-17.824218 82.542969l-6.503906-22.992187c-.382813-1.351563-1.09375-3.871094-3.351563-5.347657-2.0625-1.351562-4.355469-1.171875-5.726563-1.0625l-19.839843 1.542969c-1.816407.140625-3.230469 1.640625-3.257813 3.464844l-.546875 33.546875c-.003906.257812.023438.507812.074219.75-3.648438 2.464843-6.613281 5.53125-8.648438 9.050781-4.753906 8.226562-4.316406 18.054688-3.964843 25.949219l2.257812 50.5625v.003906c-2.023437 1.929687-3.746093 4.0625-5.09375 6.382813-5.90625 10.164062-4.574219 22.800781-3.601562 32.03125l4.59375 43.574218c1.433593 13.632813 3.222656 30.59375 13.753906 42.867188 12.980469 15.132812 33.941406 17.886718 54.296875 19.40625.089844.007812.179688.011718.269531.011718 1.171875 0 2.226563-.585937 2.871094-1.488281 15.296875 15.4375 38.859375 17.667969 60.972656 17.667969 2.035157 0 4.0625-.019531 6.066407-.046875l135.507812-1.96875c19.589844-.28125 38.347656-1.476563 52.527344-12.132813 5.167968 1.941407 10.707031 2.902344 16.351562 2.902344 12.335938 0 25.164063-4.523437 35.671875-13.0625 16.519531-13.429687 24.117188-32.992187 27.582031-47.039062 4.355469-17.660156 4.835938-35.933594 5.304688-53.601563.273438-10.433593.613281-23.417969-5.28125-34.234375zm-22.554688-17.609375 2.953126-67.546875c3.4375 3.054688 6.699218 6.933594 8.757812 11.707032 3.40625 7.894531 3.101562 17.359374 2.835938 25.714843l-1.1875 37.152344c-3.996094-3.023437-8.625-5.199219-13.496094-6.398437.074218-.199219.128906-.40625.136718-.628907zm-7.105468-74.449219c.796875.433594 1.605468.886719 2.429687 1.375 1.175781.695313 2.433594 1.503907 3.722657 2.421876l-3.082032 70.476562c0 .019531.003906.042969.003906.0625-1.558593-.214844-3.128906-.332031-4.703124-.34375zm-3.996094-2.007812-1.675781 76.199219c-2.578125.273437-5.125.828125-7.589844 1.691406.871094-27.453125.082031-54.964844-2.371094-82.421875 4.222657 1.441406 7.917969 2.800781 11.636719 4.53125zm-13.304688 133.503906c4.296876.015625 8.507813.027344 12.675782.03125.09375.386719.304687.753906.625 1.035156l4.140625 3.621094-13.96875 15.253906-5.378907-4.773437c.691407-5.050781 1.328126-10.109375 1.90625-15.167969zm20.480469 7.347656 11.871094 10.390626-13.785156 15.601562-12.074219-10.714844zm-2.222656-7.308593h3.4375l-1.527344 1.667969zm-23.347656 60.074219-5.988281 6.777343c.671874-2.816406 1.273437-5.621093 1.828124-8.359375.140626-.691406.273438-1.386718.410157-2.078125zm-2.816407-8.394532c1.0625-5.53125 2.050782-11.074218 2.976563-16.621094l8.691406-9.496093 12.128907 10.765625-18.300782 20.714844zm5.710938 11.21875 10.890625 10.625-15.730469 16.625-8.535156-8.519531c.839844-2.160156 1.589844-4.355469 2.265625-6.566406.316406-.109375.617187-.289063.855469-.558594zm2.679688-3.03125 18.425781-20.855468 12.203125 10.832031-19.640625 20.746093zm.257812-36.984375-4.5 4.914063c.410156-2.617188.804688-5.238282 1.183594-7.859375zm-52.089844-353.605469c4.058594-6.035156 8.183594-11.5625 13.941406-12.878906 6.574219-1.5 13.40625 2.894532 19.839844 7.523438 10.320313 7.425781 20.539063 15.609375 22.257813 26.734375.910156 5.875-.679688 12.042969-2.210938 18.003906-3.089843 12-6.703125 25.089844-10.195312 37.75-2.457031 8.898437-4.96875 18-7.320313 26.808594-3.1875-9.269531-7.019531-18.476563-11.644531-27.40625 6.59375-17.875 13.273437-32.621094 21.539063-47.550781.945312-1.707032.332031-3.859376-1.378907-4.804688-1.703125-.945312-3.859375-.328125-4.804687 1.378906-7.550782 13.640625-13.804688 27.113282-19.847656 42.835938-.09375-.15625-.179688-.316406-.273438-.472656-5.589844-9.441407-12.351562-18.46875-19.878906-26.464844-1.316406-1.398438-17.097656-16.097656-17.414063-15.625.003907 0 17.390625-25.832032 17.390625-25.832032zm-160.390625-21.535156c3.511719-10.039062 13.796875-16.046875 24.933594-21.8125 13.316406-6.898437 25.34375-12.476562 37.605469-10.882812 9.371094 1.21875 18.117187 6.777344 25.839844 11.679687l19.738281 12.535157c5.113281 3.246093 10.90625 6.925781 14.074219 12.15625 5.207031 8.605468 2.949218 19.945312-.078126 30.96875-1.59375-.757813-3.203124-1.480469-4.824218-2.160157-.925782-.386719-24.582032-7.761719-24.773438-5.878906.925782-11.003906 1.125-23.292969-6.515625-31.824219-4.085937-4.558594-10.285156-7.625-17.453125-8.636718-6.21875-.875-12.484375-.210938-18.335937.640624-7.695313 1.121094-16.167969 3.21875-20.652344 10.265626-3.847656 6.046874-3.027344 12.796874-2.230469 19.320312.425782 3.511719 2.046875 9.28125-1.148437 10.964844-1.746094.917968-4.363281 1.167968-6.285157 2.082031-1.8125.859375-3.554687 1.851563-5.425781 2.589844-4.769531 1.878906-9.425781 4.046875-13.945312 6.46875.6875-5.910157-.085938-11.835938-.847657-17.609375-.984374-7.449219-1.910156-14.488282.324219-20.867188zm34.34375 15.519532c-.675781-5.535157-1.308593-10.761719 1.179688-14.671876 2.953125-4.640624 9.597656-6.175781 15.707031-7.066406 5.328125-.773437 10.992188-1.386718 16.328125-.636718 5.523437.78125 10.199219 3.035156 13.175781 6.355468 5.769532 6.4375 5.578125 16.515625 4.746094 26.410156-.042969-.003906-.085938-.007812-.128906-.011718-1.949219-.179688-3.925782-.367188-5.949219-.574219-14.644531-1.515625-29.082031-2.59375-44.453125.539063.214844-3.472657-.191406-6.949219-.605469-10.34375zm-123.324219 46.121093c-1.777343-6.015625-3.792968-12.835937-2.769531-19.105469 2.199219-13.457031 17.335938-20.925781 23.746094-23.511718 3.792969-1.53125 8.789063-3.25 13.703125-3.027344 7.5625.351562 15.152344 5.394531 20.3125 13.480469 4.890625 7.671875 7.230469 16.875 9.496094 25.773437.039062.152344.101562.292969.15625.4375-6.417969 5.5625-12.351563 11.675782-17.796875 18.199219-1.851563 2.21875-14.6875 17.171875-13.789063 18.964844-.003906-.007813-24.945312-49.699219-24.945312-49.699219-.875-1.742188-2.996094-2.449219-4.742188-1.574219s-2.449218 3-1.574218 4.746094l26.417968 52.632813c.167969.335937.382813.625.628906.878906-4.019531 6.988281-7.707031 14.367187-11.027343 22.109375zm-3.019531 356.246094c.023438.160156.054688.324219.082031.484375-.097656-.078125-.195312-.160156-.292968-.238281zm-.761719-5.320313-2.570312 3c-4.257812-3.582031-8.421875-7.277343-12.515625-11.054687l12.800781-14.726563c.4375 5.054688.894532 10.105469 1.414063 15.148438.257812 2.535156.542969 5.085938.871093 7.632812zm-16.53125-45.257812-8.390624-8.207031c2.746093.160156 5.496093.257812 8.253906.257812 2.570312 0 5.144531-.097656 7.71875-.234375zm11.953126-6.960938c.085937-.089843.15625-.191406.222656-.292968.363281 6.828125.804687 13.648437 1.320312 20.460937l-10.609375-10.378906zm-14.703126 9.925782-14.515624 15.667968c-3.402344-3.628906-6.742188-7.316406-9.992188-11.082031 4.558594-5.058593 9.402344-9.871093 14.496094-14.382812zm2.890626 2.824218 12.570312 12.300782-14.234375 16.371094c-4.429687-4.179688-8.757813-8.472657-12.972656-12.871094zm-1.34375 34.464844c4.097656 3.78125 8.269531 7.484375 12.535156 11.070313l-13.976563 16.316406c-4.414062-3.496094-8.703125-7.140625-12.867187-10.929687zm-14.753907-212.582031c3.300781-.257813 6.609375-.382813 9.914063-.519531.785156-.03125 8.082031-.636719 7.992187-.808594.175781.335938.382813 1.066406.457031 1.324219 1.492188 5.28125 2.984376 10.558593 4.480469 15.839843.421875 1.503907 2.855469 7.078126 1.476563 8.066407-.746094.535156-4.671875-.355469-5.742188-.265625-2.933594.242187-5.867187.695312-8.792968 1.039062-.871094.105469-10.207032 1.339844-10.226563 2.632813 0-.015625.441406-27.308594.441406-27.308594zm-10.015625 43.554687c3.136719-5.429687 9.417969-9.503906 17.226563-11.183593 7.425781-1.597657 15.359375-1.074219 23.027343-.5625.121094.007812.234376-.011719.351563-.015625-.300781 3.257812-.574219 6.445312-.820313 9.519531-1.730468 21.472656-2.695312 43.050781-2.914062 64.648437-8.421875-.53125-17.082031-.914062-25.679688.941407-4.449218.957031-8.554687 2.527343-12.167968 4.582031l-2.046875-45.832031c-.308594-6.980469-.699219-15.660157 3.023437-22.097657zm-6.808594 82.910157c3.566407-6.140625 10.671876-10.753907 19.488282-12.652344 7.808594-1.683594 16.082031-1.285156 24.144531-.769531-.035156 14.667968.265625 29.339844.917969 43.988281-.398438-.113281-.816406-.171875-1.25-.136719-15.570313 1.210938-31.089844-.242187-46.152344-4.320312-1.007812-10.039063-1.316406-18.941406 2.851562-26.109375zm-2.066406 33.613281c6.058594 1.519531 12.179688 2.625 18.34375 3.339844-4.683594 4.214844-9.152344 8.679687-13.386718 13.351562-1.226563-1.457031-2.457032-2.90625-3.660157-4.382812zm3.972656 37.699219-1.289062-12.226563c.730469-.878906 1.46875-1.75 2.214844-2.613281 3.230468 3.734375 6.550781 7.394531 9.929687 10.996094l-10.046875 10.84375c-.289062-2.289063-.554687-4.617188-.808594-7zm1.542969 12.148437 12.085938-13.042968c4.25 4.425781 8.605469 8.75 13.070312 12.960937l-14.300781 16.449219c-3.269531-3.078125-6.449219-6.242188-9.542969-9.492188-.511719-2.21875-.9375-4.515625-1.3125-6.875zm6.621094 21.238282c-1.09375-1.925782-2.023437-3.957032-2.832031-6.082032 1.457031 1.4375 2.925781 2.859375 4.417968 4.257813zm15.265625 14.410156c-4.304688-2.21875-8.152344-5.078125-11.335938-8.792969-.582031-.675781-1.125-1.375-1.648437-2.085937l2.265625-2.605469c4.171875 3.792969 8.46875 7.445312 12.886719 10.953125zm3.8125 1.757812 1.546875-1.804687c1.882813 1.449219 3.789063 2.867187 5.714844 4.257812-2.507813-.683593-4.9375-1.496093-7.261719-2.453125zm17.117188 4.546875c-.132813-.171875-.285157-.328125-.472657-.453125-4.25-2.851562-8.402343-5.851562-12.46875-8.96875l13.910157-16.238281c1.277343 1.050781 2.542968 2.117187 3.832031 3.152344.082031.0625.164062.117187.25.167969 1.875 8.632812 4.828125 16.886718 9.9375 24.035156-5.042969-.402344-10.09375-.910156-14.988281-1.695313zm273.15625 3.238281c-12.65625 11.308594-31.300782 12.5-50.90625 12.785157l-135.507813 1.964843c-23.164063.335938-49.078125-.699218-63.617187-17.34375-9.914063-11.351562-12.3125-27.609374-13.917969-43.289062-5.6875-55.46875-6.304688-111.777344-1.835938-167.355469 2.316407-28.757812 6.601563-66.222656 19.3125-100.925781 12.867188-35.121094 32.992188-63.449219 58.207031-81.925781 13.652344-10.003907 29.394532-17.214844 45.53125-20.855469 7.359376-1.660156 14.417969-2.261719 21.488282-2.261719 7.394531 0 14.804687.660157 22.578125 1.464844 2.046875.210937 4.046875.398437 6.019531.582031 10.605469.984375 19.761719 1.835938 29.859375 6.066406 23.710937 9.9375 44.898437 29.136719 59.65625 54.058594 1.140625 1.925782 2.234375 3.878906 3.292969 5.839844.042968 1.050781.558594 2.027344 1.402344 2.664062 16.828124 32.597657 22.738281 69.34375 25.976562 98.402344 7.800781 69.949219 4.664062 140.394532-9.324219 209.375-2.9375 14.46875-7.007812 30.746094-18.214843 40.753906zm16.738281 3.527344c-3.058594-.097656-6.066407-.53125-8.96875-1.300781 3.9375-4.277344 6.972656-9.183594 9.359375-14.417969l7.449218 7.4375zm5.75-.199218 4.949219-5.230469 3.574218 3.570312c-2.824218.820313-5.675781 1.375-8.523437 1.660157zm26.796875-11.253907c-4.484375 3.640625-9.4375 6.4375-14.570313 8.371094-.011719-.5-.207031-.992187-.585937-1.371094l-3.914063-3.910156 15.765625-16.660156 8.59375 8.386719c.054688.050781.113282.089843.171875.136718-1.695312 1.761719-3.507812 3.457032-5.460937 5.046875zm8.140625-8.039062c-.011719-.011719-.019531-.023438-.03125-.035157l-8.636719-8.429687 19.765625-20.886719 3.195313 2.839844c.050781.042969.105468.074219.160156.113281-2.925782 8.589844-7.457032 18.117188-14.453125 26.398438zm17.039062-35.207031c-.367187 1.476562-.785156 3.023437-1.253906 4.617187l-1.910156-1.695313 3.292969-3.476562c-.046876.183594-.085938.367188-.128907.554688zm1.707031-8.101563-7.890624 8.339844-12.304688-10.921875 13.808594-15.625 7.652344 6.699218c.113281.097657.230468.175782.355468.242188-.414062 3.78125-.949218 7.539062-1.621094 11.265625zm2.09375-16.152344-5.808593-5.082031 6.609375-7.480469c-.1875 4.1875-.4375 8.378907-.800782 12.5625zm1.042969-18.9375-9.890625 11.195313-11.820312-10.34375 3.960937-4.324219c5.867188.003906 11.78125.011719 17.855469.035156-.03125 1.144531-.066406 2.289063-.105469 3.4375zm.296875-10.507812c-7.613281-.03125-14.964844-.035157-22.300781-.039063-7.285156 0-14.585937-.003906-22.144531-.035156 1.402344-13.566406 2.394531-27.167969 2.984375-40.78125 12.789062-6.160156 30.1875-.71875 37 11.789062 4.726562 8.671876 4.703125 19.386719 4.460937 29.066407zm0 0"/><path fill="#ffaf00" d="m10.5625 414.613281c.0625.074219.125.152344.191406.226563-.050781.058594-.101562.117187-.148437.171875zm0 0"/><path fill="#ffaf00" d="m329.277344 318.730469c-.027344-.28125-.097656-.550781-.183594-.808594 7.492188-6.824219 10.835938-17.898437 8.15625-27.714844-2.945312-10.785156-12.0625-18.21875-25.007812-20.394531-14.148438-2.371094-27.976563-4.375-41.101563-5.945312-29.539063-3.542969-59.597656-4.964844-89.347656-4.230469-16.867188.417969-33.902344 1.539062-50.632813 3.332031-15.097656 1.617188-32.1875 4.304688-43.984375 15.824219-6.015625 5.871093-9.605469 13.21875-10.117187 20.695312-.578125 8.480469 3.195312 16.90625 9.621094 21.472657 2.273437 1.617187 4.769531 2.71875 7.332031 3.472656-.402344.550781-.648438 1.226562-.675781 1.957031-1.371094 40.285156-2.125 71.707031.714843 109.320313.816407 10.773437 2.078125 21.121093 8.519531 29.3125 8.894532 11.316406 23.960938 13.914062 38.914063 15.035156 16.878906 1.269531 33.824219 1.902344 50.78125 1.902344 27.992187 0 56.007813-1.726563 83.734375-5.167969 9.371094-1.164063 18.425781-2.621094 26.199219-7.605469 14.003906-8.980469 18.953125-26.007812 21.949219-41.476562 6.953124-35.90625 8.679687-72.574219 5.128906-108.980469zm-245.167969-18.757813c.386719-5.65625 3.304687-11.53125 8.003906-16.121094 10.179688-9.9375 25.882813-12.363281 39.796875-13.855468 16.539063-1.769532 33.382813-2.878906 50.054688-3.289063 29.414062-.730469 59.132812.675781 88.335937 4.179688 13.015625 1.558593 26.730469 3.542969 40.769531 5.898437 5.945313 1 16.363282 4.3125 19.359376 15.28125 2.105468 7.707032-.980469 16.820313-7.328126 21.664063-7.152343 5.457031-16.929687 5.871093-27.980468 5.839843l-185.113282-.550781c-7.617187-.019531-14.320312-.324219-19.234374-3.816406-4.464844-3.171875-7.078126-9.152344-6.664063-15.230469zm42.097656 29.933594c1.222657 2.183594 2.210938 4.527344 2.9375 6.960938 1.515625 5.085937 1.851563 10.460937.96875 15.546874-.6875 3.957032-2.035156 6.96875-4.007812 8.957032-1.910157 1.925781-5.269531 3.253906-7.984375 2.058594-3.734375-1.640626-4.601563-6.851563-4.800782-9.015626-.878906-9.574218 3.347657-19.832031 10.515626-25.523437.632812-.507813 1.011718-.730469 1.214843-.828125.359375.414062.921875 1.425781 1.15625 1.84375zm191 96.464844c-2.707031 14-7.066406 29.328125-18.824219 36.867187-6.523437 4.183594-14.722656 5.480469-23.253906 6.542969-44.058594 5.46875-88.84375 6.554688-133.113281 3.230469-13.34375-1-26.683594-3.191407-33.890625-12.355469-5.210938-6.628906-6.296875-15.832031-7.023438-25.476562-2.816406-37.257813-2.066406-68.488282-.699218-108.546876.011718-.332031-.039063-.652343-.117188-.964843 3.449219.398437 6.800782.414062 9.699219.421875l10.871094.03125c-7.898438 6.570312-12.535157 17.996094-11.554688 28.660156v.003906c.558594 6.074219 3.179688 10.574219 7.195313 12.34375 1.203125.527344 2.519531.785156 3.867187.785156 3.046875 0 6.242188-1.3125 8.609375-3.699218 2.566406-2.585938 4.285156-6.324219 5.117188-11.113282.992187-5.691406.617187-11.707031-1.078125-17.390624-.808594-2.714844-1.914063-5.332032-3.28125-7.777344-.339844-.609375-.6875-1.226563-1.074219-1.789063l166.445312.496094c.605469 0 1.222657.003906 1.855469.003906 7.742188 0 17.339844-.289062 25.542969-4.304687 3.113281 34.765625 1.34375 69.75-5.292969 104.03125zm0 0"/><path fill="#ffaf00" d="m107.445312 168.871094c-8.632812 7.796875-11.253906 19.390625-13.375 31.585937-1.757812 10.085938-3.089843 21.570313 3.371094 30.167969 6.683594 8.894531 18.320313 10.582031 28.703125 11.46875 41.160157 3.511719 82.835938 5.28125 124.285157 5.28125 9.699218 0 19.398437-.09375 29.0625-.289062 11.496093-.230469 22.582031-.917969 31.855468-6.710938 9.863282-6.160156 16.503906-17.847656 17.761719-31.261719 1.015625-10.8125-.257813-26.578125-7.183594-35.433593-6.167969-7.882813-17.6875-8.785157-26.945312-9.511719-1.980469-.15625-3.851563-.300781-5.507813-.503907-31.480468-3.871093-63.550781-5.945312-95.320312-6.164062-18.003906-.125-36.226563.351562-54.179688 1.40625-11.636718.6875-23.738281 2.019531-32.527344 9.964844zm214.628907 39.582031c-1.054688 11.234375-6.464844 20.925781-14.46875 25.925781-7.757813 4.84375-17.386719 5.421875-28.257813 5.636719-50.710937 1.023437-102.054687-.648437-152.601562-4.964844-8.859375-.753906-18.726563-2.113281-23.652344-8.671875-4.765625-6.339844-3.628906-15.683594-2.058594-24.710937 1.230469-7.058594 2.625-13.859375 5.328125-19.492188l10.871094.167969c-1.65625 1.511719-2.96875 3.867188-4.035156 5.78125-.226563.410156-.4375.789062-.621094 1.101562-2.40625 4.085938-3.632813 7.78125-3.746094 11.304688-.148437 4.660156 1.839844 9.015625 5.195313 11.363281 1.738281 1.222657 3.785156 1.8125 5.789062 1.8125 2.652344 0 5.230469-1.039062 6.914063-3.042969 2.617187-3.113281 2.480469-7.367187 2.070312-10.726562l-.167969-1.429688c-.558593-4.800781-1.324218-11.378906-4.015624-15.277343-.207032-.300781-.417969-.554688-.625-.785157l195.140624 2.964844h.03125c.28125 0 .550782-.0625.796876-.167968 2.277343 6.960937 2.800781 15.875 2.113281 23.210937zm-206.019531-17.171875c.203124-.34375.429687-.75.675781-1.195312 1.894531-3.40625 3.21875-5.167969 3.90625-5.242188 0 0 .246093.089844.65625.683594 2.121093 3.070312 2.847656 9.316406 3.328125 13.449218l.171875 1.453126c.3125 2.546874.460937 5.71875-1.152344 7.636718-1.589844 1.886719-5 2.132813-7.296875.523438-2.25-1.574219-3.578125-4.613282-3.472656-7.929688.089844-2.828125 1.132812-5.898437 3.183594-9.378906zm24.335937-25.316406c17.796875-1.046875 35.875-1.519532 53.710937-1.394532 31.5.21875 63.292969 2.269532 94.507813 6.105469 1.8125.222657 3.757813.378907 5.820313.539063 7.875.617187 17.675781 1.386718 21.929687 6.824218.761719.972657 1.433594 2.097657 2.039063 3.316407l-209.742188-3.183594c1.023438-1.484375 2.1875-2.847656 3.527344-4.058594 7.089844-6.40625 17.820312-7.539062 28.207031-8.148437zm0 0"/><path fill="#ffaf00" d="m289.875 418.304688c-4.59375-.613282-9.414062-.378907-14.078125-.15625-2.136719.101562-4.15625.199218-6.152344.21875l-20.84375.21875c-2.570312.027343-5.144531.0625-7.714843.101562-5.019532.066406-10.207032.140625-15.304688.140625-.003906 0-.011719 0-.019531 0-4.203125.042969-8.808594.589844-11.121094 4.3125-1.285156 2.070313-1.347656 4.445313-1.394531 6.355469l-.613282 23.53125c-.035156 1.425781-.09375 3.585937 1.160157 5.339844 1.75 2.449218 4.886719 2.683593 6.835937 2.683593.253906 0 .492188-.003906.699219-.007812l65.074219-1.121094c1.972656-.03125 4.429687-.074219 6.570312-1.386719 4.203125-2.578125 4.457032-8.285156 4.578125-11.027344.089844-2.101562.265625-4.21875.449219-6.460937.382812-4.660156.78125-9.472656.394531-14.089844-.417969-5.042969-3.289062-7.953125-8.519531-8.652343zm4.097656 22.410156c-.175781 2.179687-.363281 4.4375-.460937 6.613281-.144531 3.273437-.566407 6.484375-2.648438 7.761719-1.207031.738281-2.972656.765625-4.53125.792968l-65.074219 1.121094c-1.6875.023438-3.523437-.066406-4.179687-.984375-.433594-.605469-.441406-1.667969-.410156-2.890625l.613281-23.527344c.039062-1.496093.082031-3.191406.789062-4.328124 1.28125-2.0625 4.621094-2.375 7.722657-2.40625 5.117187 0 10.320312-.070313 15.347656-.140626 2.566406-.039062 5.132813-.074218 7.699219-.097656l20.84375-.21875c2.070312-.023437 4.222656-.125 6.304687-.226562 4.484375-.214844 9.121094-.4375 13.347657.125 3.316406.445312 4.773437 1.886718 5.03125 4.984375.359374 4.28125-.023438 8.925781-.394532 13.421875zm0 0"/><path fill="#ffaf00" d="m153.007812 109.375c-2.851562 7.617188 2.214844 16.070312 8.765626 19.839844 6.546874 3.769531 14.230468 4.179687 21.015624 4.542968l46.976563 2.515626c2.589844.140624 5.320313.285156 8.101563.285156 4.0625 0 8.238281-.308594 12.246093-1.414063 7.800781-2.144531 13.773438-7.199219 15.980469-13.511719 1.71875-4.925781 1.46875-9.144531-.742188-12.542968-5.089843-7.820313-19.269531-8.964844-28.652343-9.71875-1.328125-.109375-2.558594-.207032-3.636719-.316406-18.996094-1.921876-38.28125-2.3125-57.316406-1.164063-12.691406.769531-20.128906 4.523437-22.738282 11.484375zm3.785157 1.417969c1.988281-5.308594 8.269531-8.207031 19.199219-8.871094 18.816406-1.136719 37.882812-.75 56.664062 1.152344 1.105469.109375 2.359375.210937 3.71875.320312 8.074219.652344 21.582031 1.742188 25.59375 7.898438 1.511719 2.324219 1.617188 5.269531.3125 9.003906-1.769531 5.0625-6.71875 9.15625-13.238281 10.953125-6.121094 1.683594-12.699219 1.332031-19.0625.992188l-46.976563-2.519532c-6.328125-.335937-13.503906-.722656-19.214844-4.007812-5.089843-2.929688-9.101562-9.316406-6.996093-14.921875zm0 0"/></svg>