<svg height="511pt" viewBox="-25 1 511 511.99965" width="511pt" xmlns="http://www.w3.org/2000/svg"><path fill="#ffaf00" d="m460.375 72.96875c-3.578125-21.457031-25.246094-20.839844-41.066406-20.390625-3.28125.09375-6.382813.179687-9.203125.105469l-16.835938-.46875-1.667969-33.988282c-.195312-3.960937-.558593-11.332031-6.023437-15.214843-2.816406-2-6.144531-2.449219-9.324219-2.636719l-.542968-.03125c-11.53125-.679688-32.992188-1.949219-35.945313 14.15625-2.101563 11.453125-1.90625 23.90625-1.644531 36.011719-6.550782-.171875-12.601563-.300781-18.648438-.429688-5.75-.121093-11.503906-.246093-17.6875-.40625l-1.546875-31.449219c-.191406-3.957031-.554687-11.328124-6.023437-15.214843-2.8125-2-6.140625-2.445313-9.320313-2.632813l-.542969-.035156c-11.53125-.679688-32.996093-1.949219-35.949218 14.15625-1.960938 10.710938-1.921875 22.292969-1.691406 33.648438l-2.046876-.054688c-6.554687-.183594-12.457031-.371094-18.359374-.5625-5.191407-.167969-10.378907-.332031-16.011719-.492188l-1.414063-28.8125c-.195312-3.960937-.554687-11.328124-6.023437-15.214843-2.8125-2-6.144531-2.449219-9.320313-2.636719l-.546875-.03125c-11.53125-.679688-32.992187-1.949219-35.945312 14.15625-1.8125 9.890625-1.917969 20.527344-1.742188 31.042969-6.292969-.171875-12.285156-.324219-18.261719-.472657-5.964843-.148437-11.945312-.300781-18.226562-.46875l-1.296875-26.375c-.191406-3.957031-.554687-11.328124-6.023437-15.214843-2.8125-2-6.140626-2.445313-9.320313-2.632813l-.546875-.035156c-11.53125-.679688-32.992188-1.949219-35.945312 14.15625-1.667969 9.097656-1.890626 18.824219-1.777344 28.507812-1.671875-.03125-3.179688-.050781-4.53125-.054687-20.324219-.570313-40.617188 1.015625-51.511719 16.257813-7.503906 10.496093-7.414063 24.519531-7.347656 34.757812l2.414062 376.660156c.082031 12.644532 1.601563 26.472656 12.265625 33.175782 6.191406 3.894531 13.65625 3.976562 19.652344 4.039062l391.03125 4.140625c.75.007813 1.558594.015625 2.421875.015625 7.898437 0 20.066406-.722656 26.832031-9.304688 5.261719-6.667968 5.277344-15.617187 5.289063-22.152343l.628906-332.523438c.015625-7.289062.324219-14.667969.652344-22.484375.730469-17.539062 1.488281-35.671875-1.324219-52.566406zm-70.921875 392.800781c-.242187-4.582031-.265625-9.695312 2.492187-12.300781 2.019532-1.910156 5.363282-2.398438 9.207032-2.796875l44.902344-4.648437-54.832032 53.703124zm-42.738281-449.992187c1.273437-6.949219 9.78125-8.660156 20.183594-8.660156 2.703124 0 5.53125.117187 8.394531.285156l.546875.03125c2.457031.144531 4.359375.429687 5.640625 1.339844 2.464843 1.75 2.871093 5.976562 3.058593 9.800781l2.464844 50.171875c.183594 3.746094.082032 7.796875-2.066406 9.429687-1.441406 1.09375-3.824219 1.175781-6.554688 1.15625l-23.921874-.125c-3.019532-.015625-5.855469-.144531-7.382813-1.570312-1.757813-1.644531-1.820313-5.152344-1.742187-8.3125.140624-5.726563.007812-11.796875-.121094-17.664063-.265625-12.160156-.542969-24.730468 1.5-35.882812zm7.707031 70.5 23.925781.125h.734375c2.917969 0 6.941407-.171875 10.132813-2.601563.828125-.628906 1.503906-1.347656 2.082031-2.113281 4.527344 6.167969 4.460937 16.125-.671875 23.148438-5.40625 7.398437-15.4375 11.863281-26.835938 11.933593-5.777343.03125-14.128906-.972656-21.390624-5.992187-6.292969-4.351563-10.339844-11.011719-10.828126-17.820313-.457031-6.386719 2.492188-12.6875 7.320313-16.054687.554687 2.171875 1.5625 4.214844 3.363281 5.898437 3.390625 3.167969 7.871094 3.453125 12.167969 3.476563zm-106.894531-9.371094c.554687 2.171875 1.5625 4.210938 3.363281 5.894531 3.390625 3.167969 7.875 3.453125 12.171875 3.476563l23.921875.125h.738281c2.914063 0 6.9375-.171875 10.128906-2.601563.828126-.628906 1.503907-1.347656 2.082032-2.113281 4.53125 6.167969 4.464844 16.125-.667969 23.148438-5.40625 7.398437-15.441406 11.863281-26.839844 11.933593-5.761719.03125-14.128906-.972656-21.390625-5.992187-6.292968-4.351563-10.339844-11.011719-10.828125-17.820313-.457031-6.386719 2.496094-12.6875 7.320313-16.050781zm7.828125-61.128906c1.273437-6.949219 9.777343-8.660156 20.183593-8.660156 2.699219 0 5.527344.117187 8.390626.285156l.550781.03125c2.457031.144531 4.355469.429687 5.640625 1.339844 2.460937 1.753906 2.867187 5.976562 3.058594 9.800781l2.460937 50.171875c.183594 3.746094.082031 7.796875-2.066406 9.429687-1.441407 1.09375-3.816407 1.167969-6.550781 1.15625l-23.921876-.125c-3.023437-.015625-5.859374-.144531-7.386718-1.574219-1.753906-1.636718-1.816406-5.148437-1.738282-8.3125.140626-5.644531.011719-11.621093-.117187-17.410156 0-.011718.003906-.015625.003906-.027344 0-.023437-.003906-.046874-.003906-.070312-.003906-.050781-.003906-.101562-.003906-.148438-.269531-12.160156-.546875-24.734374 1.5-35.886718zm-99.1875 61.128906c.554687 2.171875 1.5625 4.210938 3.363281 5.894531 3.390625 3.167969 7.871094 3.453125 12.167969 3.476563l23.925781.125h.734375c2.917969 0 6.941406-.171875 10.132813-2.601563.828124-.628906 1.503906-1.347656 2.082031-2.113281 4.527343 6.167969 4.460937 16.125-.671875 23.148438-5.40625 7.398437-15.4375 11.859374-26.835938 11.933593-5.75.03125-14.128906-.972656-21.390625-5.992187-6.292969-4.351563-10.339843-11.015625-10.828125-17.820313-.457031-6.386719 2.492188-12.6875 7.320313-16.050781zm7.824219-61.128906c1.605468-8.75 14.683593-9.195313 28.578124-8.375l.546876.03125c2.457031.144531 4.355468.425781 5.640624 1.339844 2.464844 1.75 2.871094 5.976562 3.058594 9.800781l2.464844 50.171875c.183594 3.746094.082031 7.796875-2.066406 9.429687-1.441406 1.09375-3.816406 1.167969-6.554688 1.15625l-23.921875-.125c-3.019531-.015625-5.855469-.148437-7.382812-1.574219-1.757813-1.640624-1.820313-5.148437-1.742188-8.3125.140625-5.722656.007813-11.792968-.121093-17.660156-.265626-12.160156-.542969-24.730468 1.5-35.882812zm-99.1875 61.125c.558593 2.171875 1.5625 4.214844 3.363281 5.898437 3.394531 3.164063 7.875 3.453125 12.171875 3.476563l23.921875.125h.738281c2.914062 0 6.9375-.171875 10.128906-2.601563.828125-.628906 1.503906-1.347656 2.082032-2.113281 4.53125 6.167969 4.464843 16.125-.667969 23.148438-5.40625 7.398437-15.441407 11.863281-26.835938 11.933593-5.757812.039063-14.128906-.972656-21.390625-5.992187-6.292968-4.351563-10.34375-11.011719-10.828125-17.820313-.460937-6.386719 2.492188-12.6875 7.316407-16.054687zm7.828124-61.125c1.605469-8.75 14.683594-9.195313 28.574219-8.375l.546875.03125c2.457032.144531 4.359375.429687 5.644532 1.339844 2.460937 1.75 2.867187 5.976562 3.054687 9.800781l2.464844 50.171875c.183593 3.746094.082031 7.796875-2.066407 9.429687-1.441406 1.09375-3.824218 1.171875-6.554687 1.15625l-23.921875-.125c-3.019531-.015625-5.855469-.148437-7.382812-1.574219-1.753907-1.640624-1.820313-5.148437-1.742188-8.3125.144531-5.722656.007812-11.792968-.121094-17.660156-.265625-12.160156-.542968-24.730468 1.503906-35.882812zm-59.023437 47.542968c8.972656-12.550781 27.199219-13.808593 45.664063-13.300781 1.464843 0 3.019531.019531 4.753906.058594.011718.582031.023437 1.160156.039062 1.738281.132813 6.054688.257813 11.769532.121094 17.332032-.003906.027343-.003906.0625-.003906.09375-.261719.058593-.519532.144531-.765625.269531-8.355469 4.1875-13.691407 14.035156-12.980469 23.953125.636719 8.921875 5.816406 17.570312 13.859375 23.128906 6.863281 4.746094 15.535156 7.246094 25.101563 7.246094h.351562c13.628906-.085938 25.777344-5.632813 32.5-14.832032 7.984375-10.925781 6.839844-26.625-2.347656-34.785156.246094-2.253906.148437-4.355468.078125-5.824218l-.820313-16.71875c6.085938.164062 11.90625.3125 17.703125.457031 6.074219.152343 12.171875.304687 18.582031.480469.125 5.753906.234376 11.21875.101563 16.527343v.09375c-.261719.0625-.515625.144531-.765625.269531-8.355469 4.1875-13.695312 14.039063-12.984375 23.953126.640625 8.925781 5.820313 17.570312 13.863281 23.128906 6.863282 4.746094 15.535156 7.25 25.097656 7.25h.355469c13.628907-.089844 25.777344-5.632813 32.5-14.835938 7.984375-10.925781 6.839844-26.625-2.351562-34.78125.25-2.257812.152343-4.359375.078125-5.824218l-.699219-14.28125c5.410156.15625 10.425781.316406 15.4375.476562 5.914063.191406 11.824219.378906 18.390625.5625l2.390625.066406c.097656 4.804688.164063 9.417969.050781 13.921875 0 .027344 0 .0625-.003906.09375-.257812.058594-.515625.144531-.765625.269531-8.351563 4.1875-13.691406 14.035157-12.980469 23.953126.636719 8.921874 5.820313 17.570312 13.859375 23.128906 6.863281 4.746094 15.535157 7.246094 25.101563 7.246094h.355468c13.625-.085938 25.773438-5.632813 32.496094-14.832032 7.984375-10.925781 6.839844-26.625-2.347656-34.785156.246094-2.253906.148438-4.355469.078125-5.824219l-.574219-11.644531c5.996094.15625 11.597656.273438 17.195313.394531 6.132812.128907 12.277343.261719 18.941406.4375.066406 3.960938.097656 7.800781.003906 11.558594v.09375c-.261719.0625-.519531.144531-.769531.269531-8.351562 4.1875-13.691406 14.039063-12.980469 23.953125.640625 8.925781 5.820313 17.570313 13.859375 23.128907 6.867188 4.746093 15.539063 7.25 25.101563 7.25h.355469c13.628906-.089844 25.777343-5.632813 32.5-14.835938 7.984374-10.925781 6.839843-26.625-2.351563-34.78125.25-2.257812.152344-4.359375.078125-5.824219l-.445312-9.105469 16.289062.453126c3.023438.082031 6.21875-.007813 9.601562-.105469 18.347657-.515625 31.515626.214843 33.894532 14.488281 2.691406 16.167969 1.949218 33.933594 1.230468 51.109375-.289062 6.925781-.574218 14.054687-.632812 20.929687-.230469-.046874-.472656-.066406-.714844-.058593-75.382812 1.332031-150.175781.113281-222.507812-1.066407-72.394532-1.175781-147.253906-2.394531-222.761719-1.0625-.039063.003907-.074219.011719-.113281.015626l-.320313-50.078126c-.078125-12.011718.324219-22.613281 6.027344-30.59375zm5.34375 434.503907c-7.773437-4.886719-8.890625-16.511719-8.960937-27.238281l-2.046876-319.550782c.066407.003906.128907.019532.195313.019532 75.386719-1.332032 150.183594-.113282 222.519531 1.0625 49.929688.8125 101.023438 1.644531 152.707032 1.644531 23.242187 0 46.617187-.167969 70.039062-.582031.195312-.003907.378906-.035157.5625-.066407l-.539062 285.453125c-.515626-.203125-1.078126-.304687-1.664063-.242187l-51.34375 5.316406c-3.96875.414063-9.40625.976563-13.335937 4.691406-4.945313 4.679688-5.015626 11.644531-4.691407 17.804688l2 38.339843-349.476562-3.703124c-6.496094-.066407-11.796875-.328126-15.964844-2.949219zm430.625.496093c-4.941406 6.265626-14.785156 6.6875-23.628906 6.59375l-29.601563-.3125 57.0625-55.890624-.0625 31.820312c-.011718 7.136719-.304687 13.398438-3.769531 17.789062zm0 0"/><path fill="#ffaf00" d="m44.839844 184.015625c-9.011719 3.632813-13.652344 12.464844-11.832032 22.503906 1.769532 9.734375 10.472657 17.191407 19.757813 17.191407.429687 0 .859375-.015626 1.289063-.050782 5.449218-.410156 10.695312-3.335937 14.027343-7.832031 5.125-6.90625 5.378907-17.132813.605469-24.320313-6.195312-9.316406-16.441406-10.476562-23.847656-7.492187zm17.566406 27.601563c-2.128906 2.871093-5.449219 4.738281-8.882812 4.996093-6.128907.464844-12.355469-4.738281-13.558594-11.355469-1.457032-8.007812 2.929687-12.835937 7.515625-14.683593 1.480469-.597657 3.136719-.933594 4.839843-.933594 3.757813 0 7.730469 1.644531 10.476563 5.78125 3.082031 4.632813 2.90625 11.746094-.390625 16.195313zm0 0"/><path fill="#ffaf00" d="m103.867188 184.015625c-9.007813 3.632813-13.652344 12.464844-11.828126 22.503906 1.765626 9.734375 10.46875 17.191407 19.753907 17.191407.429687 0 .859375-.015626 1.289062-.050782 5.453125-.410156 10.695313-3.335937 14.027344-7.832031 5.125-6.90625 5.378906-17.132813.605469-24.320313-6.191406-9.316406-16.441406-10.476562-23.847656-7.492187zm17.566406 27.601563c-2.128906 2.871093-5.449219 4.738281-8.878906 4.996093-6.128907.464844-12.359376-4.738281-13.5625-11.355469-1.453126-8.007812 2.929687-12.835937 7.515624-14.683593 1.480469-.597657 3.136719-.933594 4.839844-.933594 3.757813 0 7.730469 1.644531 10.480469 5.78125 3.078125 4.632813 2.90625 11.746094-.394531 16.195313zm0 0"/><path fill="#ffaf00" d="m170.820312 223.710938c.429688 0 .859376-.015626 1.292969-.050782 5.449219-.410156 10.691407-3.335937 14.027344-7.832031 5.121094-6.90625 5.375-17.132813.601563-24.320313-6.191407-9.316406-16.4375-10.476562-23.847657-7.492187-9.007812 3.632813-13.652343 12.464844-11.828125 22.503906 1.769532 9.734375 10.46875 17.191407 19.753906 17.191407zm-5.28125-33.136719c4.75-1.914063 11.324219-1.160157 15.316407 4.847656 3.078125 4.632813 2.90625 11.746094-.394531 16.195313-2.128907 2.867187-5.445313 4.734374-8.878907 4.992187-6.136719.472656-12.359375-4.738281-13.5625-11.355469-1.453125-8.003906 2.933594-12.832031 7.519531-14.679687zm0 0"/><path fill="#ffaf00" d="m229.851562 223.710938c.429688 0 .859376-.015626 1.289063-.050782 5.449219-.410156 10.695313-3.335937 14.027344-7.832031 5.125-6.90625 5.378906-17.132813.605469-24.320313-6.191407-9.316406-16.441407-10.476562-23.847657-7.492187-9.011719 3.632813-13.652343 12.464844-11.828125 22.503906 1.765625 9.734375 10.46875 17.191407 19.753906 17.191407zm-5.285156-33.136719c1.480469-.597657 3.136719-.933594 4.839844-.933594 3.757812 0 7.730469 1.644531 10.480469 5.78125 3.078125 4.632813 2.90625 11.746094-.394531 16.195313-2.128907 2.867187-5.449219 4.734374-8.878907 4.992187-6.128906.46875-12.359375-4.734375-13.5625-11.355469-1.453125-8.003906 2.929688-12.832031 7.515625-14.679687zm0 0"/><path fill="#ffaf00" d="m288.878906 223.710938c.429688 0 .859375-.015626 1.289063-.050782 5.453125-.410156 10.695312-3.335937 14.027343-7.832031 5.125-6.90625 5.378907-17.132813.605469-24.320313-6.191406-9.316406-16.4375-10.476562-23.847656-7.492187-9.007813 3.632813-13.652344 12.464844-11.828125 22.503906 1.769531 9.734375 10.46875 17.191407 19.753906 17.191407zm-5.28125-33.136719c4.75-1.914063 11.324219-1.15625 15.316406 4.847656 3.078126 4.632813 2.90625 11.746094-.394531 16.195313-2.128906 2.871093-5.449219 4.738281-8.878906 4.996093-6.125.464844-12.359375-4.738281-13.5625-11.355469-1.453125-8.007812 2.929687-12.835937 7.519531-14.683593zm0 0"/><path fill="#ffaf00" d="m347.90625 223.710938c.429688 0 .863281-.015626 1.292969-.050782 5.449219-.410156 10.691406-3.335937 14.027343-7.832031 5.125-6.90625 5.378907-17.132813.601563-24.320313-6.191406-9.316406-16.4375-10.476562-23.84375-7.492187-9.011719 3.632813-13.65625 12.464844-11.832031 22.503906 1.769531 9.734375 10.472656 17.191407 19.753906 17.191407zm-5.28125-33.136719c1.480469-.597657 3.136719-.933594 4.835938-.933594 3.761718 0 7.734374 1.644531 10.484374 5.78125 3.078126 4.632813 2.90625 11.746094-.394531 16.195313-2.128906 2.867187-5.449219 4.734374-8.882812 4.992187-6.125.464844-12.355469-4.734375-13.558594-11.355469-1.453125-8.003906 2.929687-12.832031 7.515625-14.679687zm0 0"/><path fill="#ffaf00" d="m406.9375 223.710938c.425781 0 .859375-.015626 1.289062-.050782 5.453126-.410156 10.695313-3.335937 14.027344-7.832031 5.125-6.90625 5.378906-17.132813.605469-24.320313-6.191406-9.316406-16.441406-10.476562-23.847656-7.492187-9.011719 3.632813-13.652344 12.464844-11.828125 22.503906 1.765625 9.734375 10.46875 17.191407 19.753906 17.191407zm-5.285156-33.136719c1.480468-.597657 3.136718-.933594 4.839844-.933594 3.757812 0 7.730468 1.644531 10.480468 5.78125 3.078125 4.632813 2.90625 11.746094-.394531 16.195313-2.128906 2.871093-5.449219 4.738281-8.878906 4.996093-6.128907.464844-12.359375-4.738281-13.5625-11.355469-1.453125-8.007812 2.929687-12.835937 7.515625-14.683593zm0 0"/><path fill="#ffaf00" d="m44.839844 244.660156c-9.011719 3.632813-13.652344 12.464844-11.832032 22.503906 1.769532 9.734376 10.472657 17.191407 19.757813 17.191407.425781 0 .859375-.015625 1.289063-.046875 5.449218-.410156 10.695312-3.339844 14.027343-7.832032 5.125-6.910156 5.378907-17.136718.605469-24.320312-6.195312-9.320312-16.4375-10.480469-23.847656-7.496094zm17.566406 27.601563c-2.128906 2.871093-5.449219 4.738281-8.882812 4.996093-6.136719.46875-12.355469-4.738281-13.558594-11.355468-1.457032-8.003906 2.929687-12.835938 7.515625-14.683594 1.480469-.59375 3.136719-.933594 4.835937-.933594 3.761719 0 7.734375 1.648438 10.480469 5.78125 3.082031 4.632813 2.90625 11.75-.390625 16.195313zm0 0"/><path fill="#ffaf00" d="m103.867188 244.660156c-9.007813 3.632813-13.652344 12.464844-11.828126 22.503906 1.765626 9.734376 10.46875 17.191407 19.753907 17.191407.429687 0 .859375-.015625 1.289062-.046875 5.453125-.410156 10.695313-3.339844 14.027344-7.832032 5.125-6.910156 5.378906-17.136718.605469-24.320312-6.191406-9.320312-16.4375-10.480469-23.847656-7.496094zm17.566406 27.601563c-2.128906 2.871093-5.449219 4.738281-8.878906 4.996093-6.144532.46875-12.359376-4.738281-13.5625-11.355468-1.453126-8.003906 2.929687-12.835938 7.515624-14.683594 1.480469-.59375 3.136719-.933594 4.839844-.933594 3.757813 0 7.730469 1.648438 10.480469 5.78125 3.078125 4.632813 2.90625 11.75-.394531 16.195313zm0 0"/><path fill="#ffaf00" d="m170.820312 284.355469c.429688 0 .859376-.015625 1.292969-.046875 5.449219-.410156 10.691407-3.339844 14.027344-7.832032 5.121094-6.910156 5.375-17.136718.601563-24.320312-6.191407-9.320312-16.4375-10.480469-23.847657-7.492188-9.007812 3.628907-13.652343 12.460938-11.828125 22.503907 1.769532 9.734375 10.472656 17.1875 19.753906 17.1875zm-5.28125-33.136719c4.75-1.910156 11.328126-1.15625 15.316407 4.847656 3.082031 4.632813 2.90625 11.75-.394531 16.195313-2.125 2.871093-5.445313 4.738281-8.878907 4.996093-6.128906.46875-12.359375-4.734374-13.558593-11.355468-1.457032-8.007813 2.929687-12.835938 7.515624-14.683594zm0 0"/><path fill="#ffaf00" d="m229.851562 284.355469c.425782 0 .859376-.015625 1.289063-.046875 5.449219-.410156 10.695313-3.339844 14.027344-7.832032 5.125-6.910156 5.378906-17.136718.605469-24.320312-6.195313-9.320312-16.4375-10.480469-23.847657-7.492188-9.011719 3.628907-13.652343 12.460938-11.828125 22.503907 1.765625 9.734375 10.46875 17.1875 19.753906 17.1875zm-5.28125-33.136719c1.476563-.597656 3.132813-.933594 4.835938-.933594 3.757812 0 7.734375 1.648438 10.480469 5.78125 3.078125 4.632813 2.90625 11.75-.394531 16.195313-2.128907 2.871093-5.449219 4.738281-8.878907 4.996093-6.144531.46875-12.359375-4.738281-13.5625-11.355468-1.453125-8.007813 2.929688-12.835938 7.519531-14.683594zm0 0"/><path fill="#ffaf00" d="m304.800781 252.15625c-6.191406-9.320312-16.4375-10.480469-23.847656-7.492188-9.007813 3.628907-13.652344 12.460938-11.828125 22.503907 1.765625 9.734375 10.46875 17.1875 19.753906 17.1875.429688 0 .859375-.015625 1.289063-.046875 5.453125-.410156 10.695312-3.339844 14.027343-7.832032 5.125-6.910156 5.378907-17.136718.605469-24.320312zm-6.28125 20.105469c-2.128906 2.871093-5.449219 4.738281-8.878906 4.996093-6.148437.464844-12.359375-4.738281-13.5625-11.355468-1.453125-8.007813 2.929687-12.835938 7.519531-14.683594 4.75-1.914062 11.324219-1.15625 15.316406 4.847656 3.078126 4.632813 2.90625 11.75-.394531 16.195313zm0 0"/><path fill="#ffaf00" d="m347.90625 284.355469c.429688 0 .863281-.015625 1.292969-.046875 5.449219-.410156 10.695312-3.339844 14.027343-7.832032 5.125-6.910156 5.378907-17.136718.601563-24.320312-6.191406-9.320312-16.4375-10.480469-23.84375-7.492188-9.011719 3.628907-13.65625 12.460938-11.832031 22.503907 1.769531 9.734375 10.46875 17.1875 19.753906 17.1875zm-5.28125-33.136719c1.480469-.597656 3.136719-.933594 4.835938-.933594 3.761718 0 7.734374 1.648438 10.480468 5.78125 3.082032 4.632813 2.90625 11.75-.394531 16.195313-2.125 2.871093-5.445313 4.738281-8.878906 4.996093-6.128907.46875-12.355469-4.734374-13.558594-11.355468-1.457031-8.007813 2.929687-12.835938 7.515625-14.683594zm0 0"/><path fill="#ffaf00" d="m406.9375 284.355469c.425781 0 .859375-.015625 1.289062-.046875 5.453126-.414063 10.695313-3.339844 14.027344-7.832032 5.125-6.910156 5.378906-17.136718.605469-24.320312-6.191406-9.320312-16.4375-10.480469-23.847656-7.492188-9.011719 3.628907-13.652344 12.460938-11.828125 22.503907 1.765625 9.734375 10.46875 17.1875 19.753906 17.1875zm-5.28125-33.136719c1.476562-.597656 3.132812-.933594 4.835938-.933594 3.757812 0 7.734374 1.648438 10.480468 5.78125 3.078125 4.632813 2.90625 11.75-.394531 16.195313-2.128906 2.871093-5.449219 4.738281-8.878906 4.996093-6.128907.46875-12.359375-4.738281-13.5625-11.355468-1.453125-8.007813 2.929687-12.835938 7.519531-14.683594zm0 0"/><path fill="#ffaf00" d="m44.839844 307.417969c-9.011719 3.628906-13.652344 12.464843-11.832032 22.503906 1.769532 9.734375 10.472657 17.1875 19.753907 17.1875.429687 0 .863281-.015625 1.292969-.046875 5.449218-.410156 10.691406-3.335938 14.027343-7.832031 5.125-6.90625 5.378907-17.136719.605469-24.320313-6.195312-9.320312-16.4375-10.476562-23.847656-7.492187zm17.566406 27.601562c-2.128906 2.867188-5.449219 4.734375-8.882812 4.992188-6.136719.46875-12.355469-4.734375-13.558594-11.351563-1.457032-8.007812 2.929687-12.835937 7.515625-14.683594 1.480469-.597656 3.136719-.933593 4.835937-.933593 3.761719 0 7.734375 1.644531 10.480469 5.78125 3.082031 4.632812 2.90625 11.746093-.390625 16.195312zm0 0"/><path fill="#ffaf00" d="m103.867188 307.417969c-9.007813 3.628906-13.652344 12.464843-11.828126 22.503906 1.765626 9.734375 10.46875 17.1875 19.75 17.1875.433594 0 .863282-.015625 1.292969-.046875 5.449219-.410156 10.695313-3.335938 14.027344-7.832031 5.125-6.90625 5.378906-17.136719.605469-24.320313-6.191406-9.320312-16.4375-10.476562-23.847656-7.492187zm17.566406 27.601562c-2.128906 2.867188-5.449219 4.734375-8.878906 4.992188-6.144532.46875-12.359376-4.734375-13.5625-11.351563-1.453126-8.007812 2.929687-12.835937 7.515624-14.683594 1.480469-.597656 3.136719-.933593 4.839844-.933593 3.757813 0 7.730469 1.644531 10.480469 5.78125 3.078125 4.632812 2.90625 11.746093-.394531 16.195312zm0 0"/><path fill="#ffaf00" d="m170.820312 347.109375c.429688 0 .859376-.015625 1.292969-.046875 5.449219-.410156 10.691407-3.335938 14.027344-7.832031 5.125-6.90625 5.378906-17.136719.601563-24.320313-6.191407-9.320312-16.4375-10.480468-23.84375-7.492187-9.011719 3.628906-13.65625 12.464843-11.832032 22.503906 1.769532 9.734375 10.46875 17.1875 19.753906 17.1875zm-5.28125-33.136719c4.75-1.910156 11.328126-1.15625 15.316407 4.851563 3.082031 4.632812 2.90625 11.746093-.394531 16.195312-2.128907 2.867188-5.445313 4.734375-8.878907 4.992188-6.128906.46875-12.359375-4.734375-13.558593-11.351563-1.457032-8.007812 2.929687-12.835937 7.515624-14.6875zm0 0"/><path fill="#ffaf00" d="m229.847656 347.109375c.429688 0 .863282-.015625 1.292969-.046875 5.449219-.410156 10.691406-3.335938 14.027344-7.832031 5.125-6.90625 5.378906-17.136719.605469-24.320313-6.195313-9.320312-16.441407-10.476562-23.847657-7.492187-9.011719 3.628906-13.652343 12.464843-11.832031 22.503906 1.769531 9.734375 10.472656 17.1875 19.753906 17.1875zm-5.277344-33.136719c1.476563-.59375 3.132813-.933594 4.835938-.933594 3.757812 0 7.734375 1.648438 10.480469 5.78125 3.078125 4.636719 2.90625 11.75-.394531 16.199219-2.128907 2.867188-5.449219 4.734375-8.878907 4.992188-6.144531.46875-12.359375-4.734375-13.5625-11.351563-1.453125-8.007812 2.929688-12.835937 7.519531-14.6875zm0 0"/><path fill="#ffaf00" d="m280.953125 307.417969c-9.007813 3.628906-13.652344 12.464843-11.828125 22.503906 1.765625 9.734375 10.46875 17.1875 19.75 17.1875.433594 0 .863281-.015625 1.292969-.046875 5.449219-.410156 10.695312-3.335938 14.027343-7.832031 5.125-6.90625 5.378907-17.136719.605469-24.320313-6.191406-9.320312-16.4375-10.476562-23.847656-7.492187zm17.566406 27.601562c-2.128906 2.867188-5.449219 4.734375-8.878906 4.992188-6.148437.46875-12.359375-4.738281-13.5625-11.355469-1.453125-8.003906 2.929687-12.835938 7.519531-14.683594 4.75-1.914062 11.324219-1.15625 15.316406 4.847656 3.078126 4.636719 2.90625 11.75-.394531 16.199219zm0 0"/><path fill="#ffaf00" d="m347.90625 347.109375c.429688 0 .859375-.015625 1.292969-.046875 5.449219-.410156 10.691406-3.335938 14.027343-7.832031 5.125-6.90625 5.378907-17.136719.601563-24.320313-6.191406-9.320312-16.4375-10.476562-23.84375-7.492187-9.011719 3.628906-13.65625 12.464843-11.832031 22.503906 1.769531 9.734375 10.46875 17.1875 19.753906 17.1875zm-5.28125-33.136719c1.480469-.59375 3.136719-.933594 4.835938-.933594 3.761718 0 7.734374 1.648438 10.480468 5.78125 3.082032 4.636719 2.90625 11.75-.394531 16.199219-2.128906 2.867188-5.445313 4.734375-8.878906 4.992188-6.128907.46875-12.355469-4.734375-13.558594-11.351563-1.457031-8.007812 2.929687-12.835937 7.515625-14.6875zm0 0"/><path fill="#ffaf00" d="m406.933594 347.109375c.429687 0 .863281-.015625 1.292968-.046875 5.449219-.410156 10.695313-3.339844 14.027344-7.832031 5.125-6.90625 5.378906-17.136719.605469-24.320313-6.195313-9.320312-16.441406-10.476562-23.847656-7.492187-9.011719 3.628906-13.652344 12.464843-11.832031 22.503906 1.769531 9.734375 10.472656 17.1875 19.753906 17.1875zm-5.277344-33.136719c1.476562-.59375 3.132812-.933594 4.835938-.933594 3.757812 0 7.734374 1.648438 10.480468 5.78125 3.078125 4.636719 2.90625 11.75-.394531 16.199219-2.128906 2.867188-5.449219 4.734375-8.878906 4.992188-6.128907.460937-12.359375-4.738281-13.5625-11.355469-1.453125-8.003906 2.929687-12.832031 7.519531-14.683594zm0 0"/><path fill="#ffaf00" d="m44.839844 368.0625c-9.011719 3.632812-13.652344 12.464844-11.832032 22.503906 1.769532 9.734375 10.472657 17.191406 19.753907 17.191406.429687 0 .863281-.015624 1.292969-.050781 5.449218-.410156 10.691406-3.335937 14.027343-7.828125 5.125-6.910156 5.378907-17.136718.605469-24.320312-6.195312-9.320313-16.441406-10.480469-23.847656-7.496094zm17.566406 27.601562c-2.128906 2.867188-5.449219 4.734376-8.882812 4.992188-6.140626.464844-12.355469-4.734375-13.558594-11.351562-1.457032-8.007813 2.929687-12.835938 7.515625-14.683594 1.480469-.597656 3.136719-.933594 4.839843-.933594 3.757813 0 7.730469 1.644531 10.476563 5.78125 3.082031 4.632812 2.90625 11.746094-.390625 16.195312zm0 0"/><path fill="#ffaf00" d="m103.867188 368.0625c-9.007813 3.632812-13.652344 12.464844-11.828126 22.503906 1.765626 9.734375 10.46875 17.191406 19.75 17.191406.429688 0 .863282-.015624 1.292969-.050781 5.449219-.410156 10.695313-3.335937 14.027344-7.828125 5.125-6.910156 5.378906-17.136718.605469-24.320312-6.191406-9.320313-16.441406-10.480469-23.847656-7.496094zm17.566406 27.601562c-2.128906 2.867188-5.449219 4.734376-8.878906 4.992188-6.140626.464844-12.359376-4.734375-13.5625-11.351562-1.453126-8.007813 2.929687-12.835938 7.515624-14.683594 1.480469-.597656 3.136719-.933594 4.839844-.933594 3.757813 0 7.730469 1.644531 10.480469 5.78125 3.078125 4.632812 2.90625 11.746094-.394531 16.195312zm0 0"/><path fill="#ffaf00" d="m170.820312 407.753906c.429688 0 .859376-.015625 1.292969-.046875 5.449219-.410156 10.691407-3.335937 14.027344-7.832031 5.125-6.90625 5.378906-17.132812.601563-24.316406-6.191407-9.320313-16.4375-10.480469-23.84375-7.492188-9.011719 3.628906-13.65625 12.460938-11.832032 22.503906 1.769532 9.730469 10.46875 17.183594 19.753906 17.183594zm-5.28125-33.132812c4.75-1.914063 11.324219-1.160156 15.316407 4.847656 3.078125 4.632812 2.90625 11.746094-.394531 16.195312-2.128907 2.867188-5.445313 4.734376-8.878907 4.992188-6.148437.460938-12.359375-4.734375-13.5625-11.351562-1.453125-8.007813 2.933594-12.835938 7.519531-14.683594zm0 0"/><path fill="#ffaf00" d="m229.847656 407.753906c.429688 0 .863282-.015625 1.292969-.046875 5.449219-.410156 10.691406-3.335937 14.027344-7.832031 5.125-6.90625 5.378906-17.132812.605469-24.316406-6.195313-9.320313-16.441407-10.480469-23.847657-7.492188-9.011719 3.628906-13.652343 12.460938-11.832031 22.503906 1.769531 9.730469 10.472656 17.183594 19.753906 17.183594zm-5.28125-33.132812c1.480469-.597656 3.136719-.933594 4.839844-.933594 3.757812 0 7.730469 1.644531 10.480469 5.78125 3.078125 4.632812 2.90625 11.746094-.394531 16.195312-2.128907 2.867188-5.449219 4.734376-8.878907 4.992188-6.140625.464844-12.359375-4.734375-13.5625-11.351562-1.453125-8.007813 2.929688-12.835938 7.515625-14.683594zm0 0"/><path fill="#ffaf00" d="m288.875 407.753906c.433594 0 .863281-.015625 1.292969-.046875 5.453125-.410156 10.695312-3.335937 14.027343-7.832031 5.125-6.90625 5.378907-17.132812.605469-24.316406-6.191406-9.320313-16.4375-10.480469-23.847656-7.492188-9.007813 3.628906-13.652344 12.460938-11.828125 22.503906 1.769531 9.730469 10.46875 17.183594 19.75 17.183594zm-5.277344-33.132812c4.75-1.914063 11.324219-1.15625 15.316406 4.847656 3.078126 4.632812 2.90625 11.746094-.394531 16.195312-2.128906 2.871094-5.449219 4.738282-8.878906 4.992188-6.140625.464844-12.359375-4.734375-13.5625-11.351562-1.453125-8.007813 2.929687-12.835938 7.519531-14.683594zm0 0"/><path fill="#ffaf00" d="m339.984375 368.0625c-9.011719 3.632812-13.652344 12.464844-11.832031 22.503906 1.769531 9.734375 10.46875 17.191406 19.753906 17.191406.429688 0 .863281-.015624 1.292969-.050781 5.449219-.410156 10.695312-3.335937 14.027343-7.828125 5.125-6.910156 5.378907-17.136718.605469-24.320312-6.195312-9.320313-16.441406-10.480469-23.847656-7.496094zm17.5625 27.601562c-2.128906 2.867188-5.445313 4.734376-8.878906 4.992188-6.140625.464844-12.355469-4.734375-13.558594-11.351562-1.453125-8.007813 2.929687-12.835938 7.515625-14.683594 1.480469-.597656 3.136719-.933594 4.839844-.933594 3.757812 0 7.730468 1.644531 10.480468 5.78125 3.078126 4.632812 2.902344 11.746094-.398437 16.195312zm0 0"/><path fill="#ffaf00" d="m406.933594 407.753906c.429687 0 .863281-.015625 1.292968-.046875 5.449219-.410156 10.695313-3.335937 14.027344-7.832031 5.125-6.90625 5.378906-17.132812.605469-24.316406-6.195313-9.320313-16.441406-10.480469-23.847656-7.492188-9.011719 3.628906-13.652344 12.460938-11.832031 22.503906 1.769531 9.730469 10.472656 17.183594 19.753906 17.183594zm-5.28125-33.132812c1.480468-.597656 3.136718-.933594 4.839844-.933594 3.757812 0 7.730468 1.644531 10.480468 5.78125 3.078125 4.632812 2.90625 11.746094-.394531 16.195312-2.128906 2.871094-5.449219 4.738282-8.878906 4.992188-6.140625.464844-12.359375-4.734375-13.5625-11.351562-1.453125-8.007813 2.929687-12.835938 7.515625-14.683594zm0 0"/><path fill="#ffaf00" d="m354.640625 360.222656c-11.734375-2.421875-23.148437 1.402344-30.523437 10.230469-9.332032 11.167969-9.476563 28.789063-.328126 40.109375 6.015626 7.441406 15.535157 11.53125 25.011719 11.53125 4.9375 0 9.859375-1.109375 14.273438-3.429688 12.878906-6.78125 19.714843-23.015624 15.566406-36.964843-3.234375-10.863281-12.429687-19.089844-24-21.476563zm6.550781 54.863282c-11.234375 5.914062-26.28125 2.808593-34.261718-7.0625-7.976563-9.875-7.851563-25.238282.289062-34.980469 6.402344-7.667969 16.347656-10.980469 26.605469-8.867188 10.261719 2.117188 18.089843 9.097657 20.941406 18.671875 3.621094 12.167969-2.34375 26.328125-13.574219 32.238282zm0 0"/></svg>