<svg version="1.1" id="Capa_1" xmlns="http://www.w3.org/2000/svg" xmlns:xlink="http://www.w3.org/1999/xlink" x="0px" y="0px" viewBox="0 0 512 512" style="enable-background:new 0 0 512 512;" xml:space="preserve"><g><g><path fill="#ffaf00" d="M434.328,477.435c-0.915-25.56-4.901-51.374-8.189-76.721c-1.85-14.263-3.887-28.503-6.312-42.68c-2.17-12.691-3.861-26.315-10.019-37.826c-5.95-11.122-16.478-19.062-25.794-27.199c-10.251-8.955-20.509-17.902-30.766-26.85c4.084-2.601,7.911-5.733,11.397-9.443c12.358-13.152,20.267-32.154,21.565-50.198c3.696-2.918,5.635-8.288,6.944-12.639c7.52-25.008-6.224-53.821-25.064-70.153c-9.521-8.253-21.145-14.573-33.672-16.625c-14.63-2.396-31.478-0.704-45.631,3.648c-25.467,7.832-42.775,31.531-47.6,57.126c-1.538,8.158-2.007,16.501-0.782,24.731c0.654,4.394,1.662,11.411,5.066,15.403c1.615,17.106,9.059,33.784,20.861,46.3c5.264,5.582,11.253,9.877,17.739,13.112c-9.563,5.75-18.943,11.754-28.113,18.141c-2.22,1.546-4.467,3.096-6.678,4.699c-1.617-8.906-3.738-17.801-7.964-25.702c-5.95-11.122-16.478-19.062-25.794-27.199c-10.251-8.955-20.509-17.902-30.766-26.85c4.084-2.601,7.911-5.733,11.397-9.443c12.358-13.152,20.267-32.154,21.565-50.198c3.696-2.918,5.635-8.288,6.943-12.639c7.52-25.008-6.224-53.821-25.064-70.152c-9.521-8.253-21.144-14.573-33.672-16.625c-14.63-2.397-31.478-0.704-45.631,3.648c-25.467,7.832-42.774,31.531-47.6,57.126c-1.538,8.158-2.007,16.501-0.782,24.731c0.654,4.394,1.662,11.41,5.067,15.403c1.615,17.107,9.059,33.784,20.861,46.3c5.264,5.582,11.253,9.877,17.739,13.112c-9.563,5.75-18.943,11.755-28.113,18.141c-8.524,5.937-17.461,11.917-23.158,20.832c-6.157,9.633-8.013,21.784-10.447,32.753c-2.84,12.797-5.491,25.635-7.754,38.548c-2.775,15.836-5.021,31.753-6.736,47.73c-1.324,0.833-2.629,1.697-3.909,2.599c-12.66,8.931-22.878,21.254-28.634,35.403c-2.862,5.737-4.962,11.943-6.067,18.67c-5.404,32.882,18.739,61.447,48.642,71.964c32.149,11.308,70.147,9.808,97.896-11.309c11.337-8.627,20.88-20.438,26.762-33.639c10.46,0.115,20.92,0.001,31.372-0.407c-0.002,0.032-0.005,0.063-0.007,0.094c-0.419,6.197-0.759,12.4-1.022,18.606c-0.246,5.82-1.738,13.196,0.371,18.773c3.702,9.79,19.077,9.971,27.661,11.215c25.164,3.646,50.747,5.054,76.126,6.318c25.725,1.281,51.528,1.685,77.248,0.093c6.246-0.386,12.484-0.889,18.71-1.526c6.073-0.621,12.77-0.768,18.635-2.578C435.135,500.357,434.702,487.883,434.328,477.435z M345.398,327.545c0.98,2.398,3.305,3.962,5.186,5.639c2.427,2.164,4.818,4.384,7.295,6.495c-9.284,12.863-19.618,24.924-29.459,37.352c9.139-31.13,13.001-63.649,18.434-95.629c2.104,5.286,4.208,10.572,6.311,15.858c1.374,3.451,3.208,6.987,4.203,10.562c0.473,1.698,1.247,3.646,0.07,5.39c-0.741,1.098-3.525,2.606-4.596,3.398C349.357,319.185,343.223,322.225,345.398,327.545z M324.569,287.02c0.564,0.667,1.098,1.353,1.625,2.043c-2.097,4.092-4.315,8.115-6.725,12.035c-0.709,1.153-1.824,2.543-2.804,4.026c-0.855-1.82-2.185-3.526-3.185-5.039c-2.048-3.097-4.293-6.052-6.611-8.949c0.68-0.802,1.358-1.606,2.032-2.412c2.504-2.994,4.91-6.661,7.72-9.559C319.619,280.984,322.55,284.63,324.569,287.02z M323.174,275.406c4.908-0.225,9.695-0.97,14.296-2.251c-1.07,5.397-2.059,10.81-3.01,16.231c-1.891-2.935-3.931-5.761-6.264-8.397C326.871,279.492,325.119,277.313,323.174,275.406z M306.631,280.474c-3.095,3.999-6.217,7.984-9.177,12.085c-1.312-7.057-2.566-14.126-3.721-21.211c5.407,1.755,11.056,2.918,16.855,3.567C309.023,276.832,307.709,279.081,306.631,280.474z M302.971,295.63c2.994,4.413,7.24,10.568,5.467,14.826c-1.328,3.19-3.425,6.154-5.574,9.059c-1.398-6.457-2.727-12.929-3.988-19.414C300.273,298.638,301.63,297.141,302.971,295.63z M311.106,319.945c1.27-1.81,3.261-4.157,4.688-6.549c1.769,2.602,5.133,5.104,6.669,7.223c2.004,2.766,3.349,5.945,5.202,8.772c-2.806,15.803-5.999,31.514-10.468,46.938c-4.613-15.896-8.725-31.931-12.39-48.07C307.075,325.627,309.114,322.781,311.106,319.945z M322.414,310.907c-1.251-2.69,2.334-7.652,3.566-10.486c1.055-2.427,2.033-4.884,2.982-7.353c0.931,1.492,1.803,3.023,2.572,4.621c0.317,0.657,0.762,1.09,1.263,1.362c-1.182,7.018-2.332,14.041-3.522,21.053c-0.236-0.364-0.471-0.724-0.703-1.078C326.836,316.365,323.71,313.694,322.414,310.907z M250.948,195.405c-0.738-2.854-1.204-5.749-1.406-8.688c-0.418-6.082,0.106-12.119,1.423-18.066c4.183-18.899,15.748-37.131,34.233-44.632c10.705-4.344,22.921-5.828,34.396-6.124c10.078-0.26,19.98,1.572,28.987,6.212c16.584,8.544,29.479,24.444,34.29,42.489c1.589,5.961,2.32,12.174,1.632,18.329c-0.34,3.039-1.042,6.086-2.201,8.921c-0.478,1.169-1.174,3.726-2.883,3.718c-1.038-0.005-2.657-2.949-3.106-3.622c-7.017-10.512-11.571-24.009-11.946-36.658c-0.109-3.675-4.363-6.7-7.737-4.44c-23.115,15.483-52.809,16.533-76.119,0.817c-3.316-2.235-6.914,0.827-7.25,4.16c-1.088,10.793-3.546,22.969-9.284,32.725c-0.309,0.392-0.617,0.785-0.938,1.168c-1.431,1.707-2.969,3.339-4.579,4.878c-0.804,0.77-1.636,1.536-2.493,2.251c-0.086,0.071-2.823,1.913-3.185,2.93C252.053,200.169,251.104,196.008,250.948,195.405z M273.352,247.289c-10.171-10.26-15.515-23.234-20.063-36.598c5.179-1.404,10.013-7.813,12.746-11.262c1.744-2.201,3.309-4.506,4.706-6.902c5.413-7.688,8.731-16.924,10.76-26.606c22.817,13.874,51.095,13.999,73.807,0.252c1.997,11.968,5.536,23.615,12.397,33.874c1.757,2.628,4.093,5.347,6.925,7.009c-3.342,14.885-6.798,29.205-17.547,40.923c-10.895,11.875-24.959,16.697-40.899,16.193C300.027,263.661,284.913,258.953,273.352,247.289z M287.129,279.54c4.489,34.421,11.493,68.418,20.665,101.895c-6.485-6.309-12.688-12.873-18.459-19.903c-2.224-2.71-4.385-5.472-6.477-8.285c-1.681-2.259-4.522-5.091-5.467-7.753c-1.182-3.328,3.024-7.109,4.835-9.666c2.224-3.14,4.374-6.324,6.517-9.519c1.001-1.491,0.348-3.919-1.241-4.733c-6.222-3.186-12.399-6.453-18.573-9.729C274.996,301.077,281.062,290.309,287.129,279.54z M176.907,271.897c0.98,2.398,3.305,3.962,5.186,5.639c2.427,2.164,4.818,4.384,7.295,6.495c-9.284,12.863-19.618,24.924-29.459,37.352c9.139-31.13,13.001-63.649,18.434-95.63c2.104,5.286,4.208,10.572,6.311,15.858c1.374,3.451,3.208,6.987,4.203,10.562c0.473,1.698,1.247,3.646,0.07,5.39c-0.741,1.098-3.525,2.606-4.596,3.398C180.865,263.537,174.731,266.577,176.907,271.897z M156.078,231.372c0.564,0.667,1.097,1.353,1.625,2.043c-2.097,4.092-4.315,8.115-6.725,12.035c-0.709,1.153-1.824,2.543-2.804,4.026c-0.855-1.82-2.185-3.526-3.185-5.039c-2.048-3.097-4.293-6.052-6.611-8.949c0.68-0.802,1.358-1.606,2.032-2.412c2.504-2.994,4.91-6.661,7.72-9.559C151.128,225.336,154.058,228.982,156.078,231.372z M154.683,219.758c4.908-0.225,9.695-0.97,14.296-2.251c-1.07,5.397-2.058,10.81-3.01,16.231c-1.891-2.935-3.931-5.761-6.264-8.397C158.38,223.844,156.628,221.665,154.683,219.758z M138.139,224.826c-3.095,3.998-6.217,7.984-9.177,12.085c-1.312-7.057-2.566-14.126-3.721-21.21c5.407,1.755,11.056,2.918,16.855,3.567C140.532,221.184,139.218,223.433,138.139,224.826z M134.48,239.982c2.994,4.413,7.24,10.568,5.467,14.826c-1.328,3.19-3.425,6.154-5.574,9.059c-1.398-6.457-2.727-12.929-3.988-19.415C131.782,242.99,133.139,241.493,134.48,239.982z M142.614,264.297c1.27-1.81,3.261-4.157,4.688-6.549c1.769,2.602,5.133,5.104,6.669,7.223c2.005,2.766,3.349,5.946,5.202,8.772c-2.806,15.803-5.999,31.514-10.468,46.938c-4.613-15.896-8.725-31.931-12.39-48.07C138.583,269.979,140.623,267.133,142.614,264.297z M153.923,255.259c-1.251-2.69,2.334-7.652,3.566-10.486c1.055-2.427,2.033-4.884,2.982-7.353c0.931,1.492,1.803,3.023,2.572,4.621c0.317,0.657,0.762,1.09,1.263,1.361c-1.182,7.018-2.332,14.041-3.522,21.053c-0.236-0.364-0.471-0.724-0.703-1.078C158.345,260.717,155.218,258.046,153.923,255.259z M82.457,139.757c-0.738-2.854-1.204-5.749-1.406-8.688c-0.418-6.082,0.106-12.119,1.423-18.066c4.183-18.899,15.748-37.131,34.233-44.632c10.705-4.344,22.921-5.828,34.396-6.124c10.078-0.26,19.98,1.572,28.987,6.212c16.584,8.544,29.479,24.444,34.29,42.489c1.589,5.961,2.32,12.174,1.632,18.329c-0.34,3.038-1.042,6.086-2.201,8.921c-0.478,1.169-1.175,3.726-2.883,3.718c-1.038-0.005-2.657-2.949-3.106-3.622c-7.018-10.513-11.571-24.009-11.947-36.659c-0.109-3.675-4.363-6.7-7.737-4.44c-23.115,15.483-52.809,16.533-76.119,0.817c-3.316-2.235-6.914,0.827-7.25,4.16c-1.088,10.793-3.546,22.969-9.284,32.725c-0.309,0.393-0.617,0.785-0.938,1.168c-1.431,1.707-2.969,3.339-4.579,4.878c-0.805,0.77-1.637,1.536-2.493,2.251c-0.086,0.071-2.823,1.913-3.185,2.93C83.562,144.521,82.613,140.36,82.457,139.757z M104.86,191.641c-10.171-10.26-15.515-23.234-20.063-36.598c5.179-1.404,10.013-7.813,12.746-11.262c1.744-2.201,3.309-4.506,4.705-6.902c5.413-7.688,8.731-16.924,10.761-26.606c22.817,13.874,51.094,13.999,73.807,0.252c1.997,11.968,5.536,23.615,12.397,33.874c1.757,2.628,4.093,5.347,6.925,7.009c-3.342,14.885-6.798,29.205-17.548,40.923c-10.895,11.875-24.959,16.697-40.899,16.193C131.536,208.013,116.422,203.305,104.86,191.641z M118.637,223.892c4.489,34.421,11.493,68.418,20.666,101.895c-6.485-6.309-12.688-12.873-18.459-19.903c-2.225-2.71-4.385-5.472-6.477-8.285c-1.681-2.259-4.522-5.091-5.467-7.753c-1.182-3.328,3.024-7.109,4.834-9.666c2.224-3.14,4.374-6.324,6.517-9.519c1-1.491,0.348-3.919-1.241-4.733c-6.222-3.186-12.399-6.453-18.573-9.729C106.504,245.429,112.571,234.661,118.637,223.892z M151.791,465.79c-19.776,22.837-49.215,30.27-78.49,26.626c-15.974-1.988-31.561-7.033-43.82-17.792C18.888,465.327,10.49,453.103,9.71,438.65c-1.73-32.053,24.081-54.339,50.577-67.346c2.251-0.788,4.526-1.508,6.811-2.178c5.653-1.658,11.639-2.061,17.24-3.701c5.946-1.742,7.801-8.236,10.598-13.132c1.416-2.479,2.842-4.948,4.278-7.41c0.625,3.479,1.273,6.954,1.965,10.423c1.466,7.35,1.412,15.336,9.874,17.466c14.28,3.596,29.233,7.915,41.008,17.318C176.141,409.32,169.862,444.922,151.791,465.79z M206.361,441.062c-9.368,0.38-18.739,0.519-28.112,0.466c3.2-12.46,2.991-25.62-2.011-38.189c-7.034-17.671-21.217-27.298-38.141-34.553c-4.231-1.813-8.513-3.519-12.919-4.862c-2.398-0.731-4.83-1.365-7.286-1.865c-0.723-0.147-2.421-0.233-3.299-0.485c-0.036-0.165-0.4-0.719-0.543-1.488c-1.966-10.536-4.468-20.982-7.023-31.387c-1.045-4.256-7.506-5.258-9.576-1.252c-3.482,6.74-7.152,13.35-10.884,19.954c-1.837,3.249-3.139,7.113-6.865,8.207c-2.728,0.801-5.843,0.884-8.644,1.477c-6.712,1.419-13.286,3.531-19.57,6.294c0.961-8.728,2.066-17.44,3.326-26.123c1.884-12.985,4.116-25.919,6.686-38.786c2.399-12.013,4.426-24.989,9.008-36.396c4.32-10.756,13.96-17.348,23.017-23.87c6.228-4.485,12.31-9.137,18.294-13.915c-6.161,10.529-12.322,21.058-18.484,31.587c-0.848,1.449-0.367,3.515,1.138,4.341c5.921,3.249,11.832,6.51,17.717,9.821c-1.981,2.726-3.946,5.462-5.876,8.228c-1.92,2.753-4.572,5.615-5.072,9.053c-0.444,3.046,1.185,5.171,2.848,7.531c2.37,3.363,4.763,6.699,7.27,9.964c5.03,6.548,10.353,12.876,16.008,18.894c6.621,7.047,13.762,13.541,21.074,19.838c0.648,0.498,11.784-14.134,12.99-15.643c3.499-4.379,7.723-8.158,11.287-12.483c8.071-9.794,16.058-19.658,24.133-29.449c1.265-1.534,1.46-3.594,0-5.118c-2.212-2.31-4.59-4.448-6.928-6.63c-1.14-1.065-3.579-2.687-4.906-4.277c1.199-1.145,2.84-2.115,3.948-3.002c2.143-1.718,4.572-3.326,6.531-5.259c3.294-3.252,2.773-6.512,1.243-10.614c-2.769-7.427-5.78-14.777-8.785-22.123c3.955,3.531,7.909,7.063,11.865,10.594c8.236,7.349,17.101,14.366,24.536,22.55c7.147,7.866,9.818,17.442,11.79,27.649c0.647,3.351,1.265,6.709,1.868,10.069c-1.922,2.024-3.687,4.197-5.214,6.586c-6.157,9.633-8.013,21.784-10.447,32.753c-2.84,12.797-5.491,25.635-7.754,38.548C210.92,398.691,208.165,419.829,206.361,441.062z M421.997,490.316c-0.944,2.333-2.746,2.437-5.091,2.855c-6.115,1.09-12.432,1.521-18.616,2.068c-46.836,4.147-93.832,0.983-140.606-2.395c-11.389-0.822-22.742-1.812-33.912-4.279c-1.775-0.392-5.262-0.635-6.8-1.741c-1.989-1.429-1.334-3.274-1.284-5.755c0.119-5.865,0.371-11.726,0.677-17.584c1.232-23.604,3.546-47.19,6.94-70.582c1.884-12.985,4.116-25.919,6.686-38.786c2.399-12.013,4.426-24.989,9.008-36.396c4.32-10.756,13.96-17.348,23.017-23.87c6.228-4.485,12.31-9.137,18.294-13.915c-6.161,10.529-12.322,21.058-18.484,31.587c-0.848,1.449-0.367,3.515,1.138,4.341c5.921,3.249,11.832,6.51,17.717,9.821c-1.981,2.726-3.946,5.462-5.876,8.229c-1.92,2.753-4.572,5.615-5.073,9.052c-0.444,3.046,1.185,5.172,2.848,7.531c2.37,3.363,4.763,6.699,7.27,9.964c5.03,6.548,10.353,12.876,16.008,18.894c3.055,3.252,6.602,5.96,10.003,8.774c3.95,3.268,7.392,7.432,10.986,11.092c0.357,0.363,11.928-13.146,12.918-14.415c2.302-2.951,4.207-6.115,6.766-8.91c10.087-11.017,19.306-22.753,28.812-34.279c1.265-1.534,1.46-3.594,0-5.118c-2.212-2.31-4.59-4.448-6.928-6.63c-1.14-1.065-3.579-2.687-4.906-4.277c1.199-1.145,2.84-2.115,3.948-3.002c2.143-1.718,4.572-3.326,6.53-5.259c3.294-3.252,2.773-6.511,1.243-10.614c-2.769-7.427-5.78-14.777-8.785-22.123c3.955,3.531,7.909,7.063,11.865,10.593c8.236,7.35,17.101,14.366,24.535,22.55c7.147,7.866,9.818,17.442,11.79,27.649c2.143,11.095,4.037,22.242,5.747,33.412c3.574,23.352,6.274,46.825,8.89,70.3c1.234,11.077,2.887,22.201,2.991,33.363C422.286,484.677,422.831,488.255,421.997,490.316z"/></g></g><g><g><path fill="#ffaf00" d="M485.552,16.783C467.539,7.756,446.093,5.36,426.279,3.674c-16.262-1.384-32.702-1.19-48.831,1.11c-23.219,2.003-48.34,6.547-66.975,20.974c-8.374,6.483-15.707,15.358-17.773,26.003c-2.194,11.311,1.954,22.494,9.641,30.839c17.577,19.08,48.792,20.525,72.903,21.084c7.417,0.172,14.833,0.163,22.251,0.092c4.047-0.039,8.095-0.062,12.142-0.024c3.863,0.037,8.274,0.734,12.112,0.237c0.207,0.004,0.414,0.008,0.621,0.012c0.041,0.339,0.207,0.836,0.526,1.523c-0.075,2.193,0.589,4.641,0.776,6.832c0.349,4.114,0.525,8.246,0.516,12.376c-0.016,7.142-1.135,14.035,2.223,20.627c1.282,2.516,5.15,2.942,7.03,0.906c7.008-7.588,13.161-15.611,17.867-24.849c1.801-3.535,3.177-10.631,6.496-12.59c2.147-1.268,5.625-1.184,8.089-1.744c2.924-0.664,5.809-1.512,8.625-2.542c18.25-6.681,34.272-21.618,37.067-41.578C514.362,43.136,502.938,25.496,485.552,16.783z M500.862,58.875c-0.762,19.74-18.477,32.755-36.184,37.027c-4.888,1.179-10.627,0.991-14.698,4.279c-3.813,3.08-4.618,8.074-6.098,12.474c-2.458,7.305-6.144,14.296-10.844,20.469c0.149-3.609,0.819-7.364,0.882-10.455c0.14-6.84-0.145-13.778-0.976-20.573c-0.6-4.909-2.723-7.948-7.699-9.015c-6.31-1.353-13.23-1.072-19.652-1.215c-25.047-0.559-51.096,1.698-75.389-5.771c-10.572-3.251-21.218-9.478-25.524-20.218c-3.988-9.948,0.389-20.003,7.426-27.276c16.191-16.731,42.726-21.863,64.878-24.68c7.547-0.96,15.164-1.663,22.807-2.076c4.495,0.042,8.997,0.197,13.502,0.471c19.082,1.157,39.132,3.716,57.25,10.106C486.65,28.101,501.581,40.245,500.862,58.875z"/></g></g><g><g><path fill="#ffaf00" d="M470.607,40.632c-22.178-0.267-44.311-2.175-66.504-2.258c-22.172-0.083-44.329,2.186-66.504,1.826c-2.992-0.048-2.997,4.869,0,4.821c22.175-0.36,44.332,1.909,66.504,1.826c22.193-0.083,44.326-1.991,66.504-2.258C473.062,44.56,473.066,40.661,470.607,40.632z"/></g></g><g><g><path fill="#ffaf00" d="M470.607,63.847c-22.178-0.267-44.311-2.175-66.504-2.258c-22.172-0.083-44.329,2.186-66.504,1.826c-2.992-0.049-2.997,4.87,0,4.821c22.175-0.36,44.332,1.909,66.504,1.826c22.193-0.083,44.326-1.991,66.504-2.258C473.062,67.775,473.066,63.877,470.607,63.847z"/></g></g><g><g><path fill="#ffaf00" d="M144.595,403.876c-17.762-0.259-35.488-2.111-53.262-2.192c-17.758-0.08-35.503,2.122-53.262,1.773c-2.396-0.047-2.4,4.727,0,4.68c17.76-0.349,35.505,1.853,53.262,1.773c17.774-0.08,35.5-1.933,53.262-2.192C146.562,407.689,146.565,403.905,144.595,403.876z"/></g></g><g><g><path fill="#ffaf00" d="M144.595,426.412c-17.762-0.259-35.488-2.111-53.262-2.192c-17.758-0.08-35.503,2.122-53.262,1.773c-2.396-0.047-2.4,4.727,0,4.68c17.76-0.349,35.505,1.853,53.262,1.773c17.774-0.08,35.5-1.933,53.262-2.192C146.562,430.225,146.565,426.441,144.595,426.412z"/></g></g><g><g><path fill="#ffaf00" d="M144.595,448.948c-17.762-0.259-35.488-2.111-53.262-2.192c-17.758-0.08-35.503,2.122-53.262,1.772c-2.396-0.047-2.4,4.727,0,4.68c17.76-0.349,35.505,1.853,53.262,1.772c17.774-0.08,35.5-1.933,53.262-2.192C146.562,452.761,146.565,448.977,144.595,448.948z"/></g></g></svg>